<svg width="2773" height="652" viewBox="0 0 2773 652" fill="none" xmlns="http://www.w3.org/2000/svg">
<path d="M838.158 235.334C837.133 246.32 833.349 254.768 826.806 260.676C820.263 266.535 811.376 269.465 800.146 269.465C792.577 269.465 785.863 267.561 780.004 263.752C774.193 259.895 769.677 254.45 766.454 247.419C763.231 240.339 761.596 232.258 761.547 223.176V206.696C761.547 197.614 763.134 189.509 766.308 182.38C769.481 175.202 773.998 169.66 779.857 165.754C785.766 161.848 792.528 159.895 800.146 159.895C811.278 159.895 820.141 162.824 826.732 168.684C833.324 174.543 837.133 182.941 838.158 193.879H834.203C833.08 184.064 829.662 176.618 823.949 171.54C818.236 166.413 810.302 163.85 800.146 163.85C789.794 163.85 781.42 167.756 775.023 175.568C768.676 183.381 765.502 193.854 765.502 206.989V222.663C765.502 231.062 766.918 238.508 769.75 245.002C772.582 251.447 776.635 256.477 781.908 260.09C787.23 263.703 793.31 265.51 800.146 265.51C810.351 265.51 818.31 262.995 824.022 257.966C829.784 252.937 833.178 245.393 834.203 235.334H838.158ZM869.799 268H865.844V161.359H869.799V268ZM959.447 215.119H905.98V264.045H966.918V268H902.025V161.359H966.918V165.314H905.98V211.164H959.447V215.119ZM951.317 151.325V152.058H946.337L932.641 137.702L919.091 152.058H914.403V151.032L931.249 133.527H934.179L951.317 151.325ZM1064.26 268H1060.3L991.454 168.098V268H987.426V161.359H991.454L1060.3 261.042V161.359H1064.26V268ZM1166.14 235.334C1165.11 246.32 1161.33 254.768 1154.78 260.676C1148.24 266.535 1139.35 269.465 1128.12 269.465C1120.56 269.465 1113.84 267.561 1107.98 263.752C1102.17 259.895 1097.66 254.45 1094.43 247.419C1091.21 240.339 1089.57 232.258 1089.53 223.176V206.696C1089.53 197.614 1091.11 189.509 1094.29 182.38C1097.46 175.202 1101.98 169.66 1107.84 165.754C1113.74 161.848 1120.51 159.895 1128.12 159.895C1139.26 159.895 1148.12 162.824 1154.71 168.684C1161.3 174.543 1165.11 182.941 1166.14 193.879H1162.18C1161.06 184.064 1157.64 176.618 1151.93 171.54C1146.21 166.413 1138.28 163.85 1128.12 163.85C1117.77 163.85 1109.4 167.756 1103 175.568C1096.65 183.381 1093.48 193.854 1093.48 206.989V222.663C1093.48 231.062 1094.9 238.508 1097.73 245.002C1100.56 251.447 1104.61 256.477 1109.89 260.09C1115.21 263.703 1121.29 265.51 1128.12 265.51C1138.33 265.51 1146.29 262.995 1152 257.966C1157.76 252.937 1161.16 245.393 1162.18 235.334H1166.14ZM1197.78 268H1193.82V161.359H1197.78V268ZM1287.5 236.14H1235.28L1223.41 268H1219.09L1259.01 161.359H1263.84L1303.76 268H1299.44L1287.5 236.14ZM1236.74 232.185H1286.03L1261.42 166.12L1236.74 232.185ZM1356.86 268V161.359H1386.38C1394.63 161.359 1402.1 163.312 1408.79 167.219C1415.48 171.125 1420.73 176.618 1424.54 183.698C1428.34 190.729 1430.3 198.615 1430.39 207.355V221.198C1430.39 230.085 1428.51 238.093 1424.75 245.222C1421.04 252.351 1415.84 257.917 1409.15 261.921C1402.46 265.925 1394.99 267.951 1386.74 268H1356.86ZM1360.81 165.314V264.045H1386.38C1393.85 264.045 1400.63 262.238 1406.74 258.625C1412.89 254.963 1417.7 249.885 1421.17 243.391C1424.63 236.848 1426.39 229.597 1426.44 221.638V207.941C1426.44 199.982 1424.73 192.756 1421.31 186.262C1417.94 179.768 1413.21 174.689 1407.1 171.027C1401.05 167.316 1394.33 165.412 1386.96 165.314H1360.81ZM1509.57 236.14H1457.35L1445.48 268H1441.16L1481.08 161.359H1485.91L1525.83 268H1521.51L1509.57 236.14ZM1458.81 232.185H1508.1L1483.5 166.12L1458.81 232.185Z" fill="#C7C8D1"/>
<path d="M893.285 439.987C891.22 457.658 884.679 471.313 873.664 480.952C862.724 490.514 848.152 495.295 829.945 495.295C810.209 495.295 794.374 488.219 782.44 474.067C770.583 459.915 764.655 440.982 764.655 417.268V401.203C764.655 385.674 767.409 372.019 772.917 360.239C778.501 348.458 786.38 339.431 796.554 333.159C806.728 326.809 818.509 323.635 831.896 323.635C849.643 323.635 863.872 328.607 874.582 338.552C885.291 348.42 891.526 362.113 893.285 379.631H871.139C869.227 366.32 865.058 356.682 858.632 350.715C852.283 344.748 843.371 341.765 831.896 341.765C817.82 341.765 806.767 346.966 798.734 357.37C790.779 367.774 786.801 382.576 786.801 401.777V417.956C786.801 436.086 790.587 450.506 798.161 461.215C805.734 471.925 816.329 477.28 829.945 477.28C842.185 477.28 851.556 474.526 858.058 469.018C864.637 463.434 868.997 453.757 871.139 439.987H893.285ZM1051.98 414.858C1051.98 431.228 1049.23 445.533 1043.72 457.773C1038.21 469.936 1030.41 479.23 1020.31 485.656C1010.21 492.082 998.431 495.295 984.967 495.295C971.81 495.295 960.144 492.082 949.97 485.656C939.796 479.154 931.878 469.936 926.217 458.002C920.633 445.992 917.764 432.108 917.611 416.35V404.301C917.611 388.237 920.403 374.047 925.988 361.73C931.572 349.414 939.451 340.005 949.625 333.503C959.876 326.924 971.58 323.635 984.738 323.635C998.125 323.635 1009.91 326.886 1020.08 333.388C1030.33 339.814 1038.21 349.185 1043.72 361.501C1049.23 373.741 1051.98 388.007 1051.98 404.301V414.858ZM1030.06 404.072C1030.06 384.259 1026.08 369.074 1018.13 358.518C1010.17 347.884 999.043 342.568 984.738 342.568C970.815 342.568 959.838 347.884 951.806 358.518C943.85 369.074 939.757 383.762 939.528 402.58V414.858C939.528 434.059 943.544 449.167 951.576 460.183C959.685 471.122 970.815 476.591 984.967 476.591C999.196 476.591 1010.21 471.428 1018.01 461.101C1025.82 450.697 1029.83 435.818 1030.06 416.464V404.072ZM1113.48 325.93L1168.1 462.248L1222.72 325.93H1251.29V493H1229.26V427.939L1231.33 357.714L1176.48 493H1159.61L1104.88 358.059L1107.06 427.939V493H1085.03V325.93H1113.48ZM1312.22 427.595V493H1290.19V325.93H1351.81C1370.09 325.93 1384.4 330.596 1394.73 339.929C1405.13 349.261 1410.33 361.616 1410.33 376.992C1410.33 393.209 1405.24 405.716 1395.07 414.514C1384.97 423.234 1370.48 427.595 1351.58 427.595H1312.22ZM1312.22 409.58H1351.81C1363.59 409.58 1372.62 406.826 1378.89 401.318C1385.16 395.734 1388.3 387.701 1388.3 377.221C1388.3 367.277 1385.16 359.321 1378.89 353.354C1372.62 347.387 1364.01 344.289 1353.07 344.06H1312.22V409.58ZM1556.06 325.93V439.528C1555.98 455.287 1551.01 468.177 1541.14 478.198C1531.35 488.219 1518.04 493.841 1501.21 495.065L1495.36 495.295C1477.08 495.295 1462.5 490.361 1451.64 480.493C1440.78 470.625 1435.27 457.046 1435.12 439.758V325.93H1456.92V439.069C1456.92 451.156 1460.25 460.565 1466.9 467.297C1473.56 473.952 1483.04 477.28 1495.36 477.28C1507.83 477.28 1517.35 473.952 1523.93 467.297C1530.58 460.642 1533.91 451.271 1533.91 439.184V325.93H1556.06ZM1706.26 344.06H1652.56V493H1630.64V344.06H1577.06V325.93H1706.26V344.06ZM1814.12 449.396H1744.13L1728.41 493H1705.69L1769.49 325.93H1788.76L1852.68 493H1830.07L1814.12 449.396ZM1750.78 431.267H1807.58L1779.12 353.125L1750.78 431.267ZM1996.68 439.987C1994.62 457.658 1988.08 471.313 1977.06 480.952C1966.12 490.514 1951.55 495.295 1933.34 495.295C1913.61 495.295 1897.77 488.219 1885.84 474.067C1873.98 459.915 1868.05 440.982 1868.05 417.268V401.203C1868.05 385.674 1870.81 372.019 1876.31 360.239C1881.9 348.458 1889.78 339.431 1899.95 333.159C1910.13 326.809 1921.91 323.635 1935.29 323.635C1953.04 323.635 1967.27 328.607 1977.98 338.552C1988.69 348.42 1994.92 362.113 1996.68 379.631H1974.54C1972.63 366.32 1968.46 356.682 1962.03 350.715C1955.68 344.748 1946.77 341.765 1935.29 341.765C1921.22 341.765 1910.17 346.966 1902.13 357.37C1894.18 367.774 1890.2 382.576 1890.2 401.777V417.956C1890.2 436.086 1893.99 450.506 1901.56 461.215C1909.13 471.925 1919.73 477.28 1933.34 477.28C1945.58 477.28 1954.95 474.526 1961.46 469.018C1968.04 463.434 1972.4 453.757 1974.54 439.987H1996.68ZM1940.57 494.033L1939.2 500C1950.9 502.065 1956.75 508.682 1956.75 519.851C1956.75 527.271 1953.69 533.123 1947.57 537.407C1941.45 541.767 1932.92 543.947 1921.98 543.947L1921.18 531.669C1927.22 531.669 1931.89 530.675 1935.18 528.686C1938.55 526.697 1940.23 523.905 1940.23 520.31C1940.23 516.944 1939 514.458 1936.56 512.851C1934.11 511.245 1929.14 510.097 1921.64 509.409L1925.31 494.033H1940.57ZM2119.12 449.396H2049.12L2033.4 493H2010.68L2074.48 325.93H2093.76L2157.67 493H2135.07L2119.12 449.396ZM2055.78 431.267H2112.58L2084.12 353.125L2055.78 431.267ZM2125.31 284.851C2125.31 293.112 2122.94 299.806 2118.2 304.931C2113.53 310.056 2107.68 312.619 2100.64 312.619C2097.51 312.619 2094.79 312.237 2092.5 311.472C2090.2 310.707 2087.18 309.139 2083.43 306.767C2079.76 304.396 2077.08 302.98 2075.4 302.521C2073.79 301.986 2071.92 301.718 2069.78 301.718C2066.64 301.718 2063.96 302.942 2061.74 305.39C2059.53 307.762 2058.42 310.821 2058.42 314.57L2044.19 313.767C2044.19 305.581 2046.48 298.811 2051.07 293.457C2055.74 288.102 2061.63 285.424 2068.74 285.424C2071.42 285.424 2073.83 285.807 2075.97 286.572C2078.12 287.337 2081.02 288.828 2084.69 291.047C2088.37 293.265 2091.16 294.719 2093.07 295.407C2095.06 296.096 2097.24 296.44 2099.61 296.44C2102.9 296.44 2105.62 295.139 2107.76 292.539C2109.98 289.938 2111.09 286.916 2111.09 283.474L2125.31 284.851ZM2307.3 414.858C2307.3 431.228 2304.55 445.533 2299.04 457.773C2293.53 469.936 2285.73 479.23 2275.63 485.656C2265.53 492.082 2253.75 495.295 2240.29 495.295C2227.13 495.295 2215.47 492.082 2205.29 485.656C2195.12 479.154 2187.2 469.936 2181.54 458.002C2175.96 445.992 2173.09 432.108 2172.93 416.35V404.301C2172.93 388.237 2175.73 374.047 2181.31 361.73C2186.89 349.414 2194.77 340.005 2204.95 333.503C2215.2 326.924 2226.9 323.635 2240.06 323.635C2253.45 323.635 2265.23 326.886 2275.4 333.388C2285.65 339.814 2293.53 349.185 2299.04 361.501C2304.55 373.741 2307.3 388.007 2307.3 404.301V414.858ZM2285.38 404.072C2285.38 384.259 2281.41 369.074 2273.45 358.518C2265.5 347.884 2254.37 342.568 2240.06 342.568C2226.14 342.568 2215.16 347.884 2207.13 358.518C2199.17 369.074 2195.08 383.762 2194.85 402.58V414.858C2194.85 434.059 2198.87 449.167 2206.9 460.183C2215.01 471.122 2226.14 476.591 2240.29 476.591C2254.52 476.591 2265.53 471.428 2273.34 461.101C2281.14 450.697 2285.16 435.818 2285.38 416.464V404.072Z" fill="white"/>
<path d="M2434.43 381.359V453.576C2434.43 464.855 2431.15 473.669 2424.61 480.017C2418.07 486.315 2409.21 489.465 2398.02 489.465C2386.84 489.465 2377.98 486.315 2371.44 480.017C2364.89 473.669 2361.6 464.953 2361.55 453.869V381.359H2365.5V453.43C2365.5 463.293 2368.46 471.105 2374.37 476.867C2380.32 482.629 2388.21 485.51 2398.02 485.51C2407.84 485.51 2415.7 482.629 2421.61 476.867C2427.52 471.105 2430.47 463.269 2430.47 453.356V381.359H2434.43ZM2521.29 435.559H2466.65V488H2462.7V381.359H2528.76V385.314H2466.65V431.457H2521.29V435.559ZM2607.13 435.559H2552.49V488H2548.54V381.359H2614.6V385.314H2552.49V431.457H2607.13V435.559ZM2698.24 462.438C2698.24 457.897 2697.17 454.064 2695.02 450.939C2692.92 447.766 2689.58 444.982 2684.99 442.59C2680.45 440.148 2673.56 437.658 2664.33 435.119C2655.1 432.58 2648.17 430.017 2643.53 427.429C2638.94 424.841 2635.57 421.838 2633.42 418.42C2631.28 415.002 2630.2 410.852 2630.2 405.969C2630.2 398.205 2633.47 391.931 2640.02 387.146C2646.56 382.312 2655.08 379.895 2665.58 379.895C2672.41 379.895 2678.54 381.237 2683.96 383.923C2689.43 386.56 2693.65 390.295 2696.63 395.129C2699.61 399.914 2701.1 405.334 2701.1 411.389H2697.15C2697.15 403.43 2694.22 396.862 2688.36 391.687C2682.5 386.462 2674.9 383.85 2665.58 383.85C2656.2 383.85 2648.61 385.949 2642.8 390.148C2637.04 394.299 2634.16 399.523 2634.16 405.822C2634.16 412.219 2636.67 417.37 2641.7 421.276C2646.73 425.183 2655.03 428.649 2666.6 431.677C2678.18 434.655 2686.65 438.122 2692.02 442.077C2698.85 447.106 2702.27 453.845 2702.27 462.292C2702.27 467.663 2700.76 472.424 2697.73 476.574C2694.7 480.676 2690.41 483.85 2684.84 486.096C2679.27 488.342 2673.02 489.465 2666.09 489.465C2658.38 489.465 2651.44 488.195 2645.29 485.656C2639.14 483.068 2634.5 479.406 2631.37 474.67C2628.3 469.934 2626.76 464.343 2626.76 457.897H2630.71C2630.71 466.638 2633.99 473.425 2640.53 478.259C2647.07 483.093 2655.59 485.51 2666.09 485.51C2675.42 485.51 2683.11 483.386 2689.16 479.138C2695.22 474.841 2698.24 469.274 2698.24 462.438Z" fill="#C7C8D1"/>
<path fill-rule="evenodd" clip-rule="evenodd" d="M209.366 414.835C160.423 330.854 189.212 223.655 273.9 174.534C358.587 125.413 467.577 152.695 518.216 235.692C568.855 318.689 542.25 426.434 458.577 477.218L419.126 414.002C467.654 384.55 483.092 322.076 453.734 273.958C424.376 225.839 361.173 210.029 312.058 238.517C262.942 267.006 246.238 329.163 274.613 377.852L209.366 414.835Z" fill="#FCAE17"/>
<path fill-rule="evenodd" clip-rule="evenodd" d="M350.541 580.72H378.857V609.037H350.541V580.72Z" fill="#71C9B8"/>
<path fill-rule="evenodd" clip-rule="evenodd" d="M350.541 47.5862H378.857V75.9028H350.541V47.5862Z" fill="#71C9B8"/>
<path fill-rule="evenodd" clip-rule="evenodd" d="M277.308 600.249C159.842 561.827 80.2797 452.073 80.0682 328.161C79.8566 204.249 159.043 94.2224 276.378 55.3976L277.308 78.5027C169.931 114.033 104.135 214.723 104.328 328.12C104.522 441.516 169.81 541.957 277.308 577.118V600.249Z" fill="#71C9B8"/>
<path fill-rule="evenodd" clip-rule="evenodd" d="M451.113 600.249C569.161 561.827 649.117 452.073 649.329 328.161C649.542 204.249 569.963 94.2224 452.048 55.3976L451.113 78.5027C559.022 114.033 625.144 214.723 624.949 328.12C624.755 441.516 559.143 541.957 451.113 577.118V600.249Z" fill="#71C9B8"/>
</svg>
 